<?xml version="1.0" encoding="utf-8"?>
<!-- Generator: Adobe Illustrator 17.0.0, SVG Export Plug-In . SVG Version: 6.00 Build 0)  -->
<!DOCTYPE svg PUBLIC "-//W3C//DTD SVG 1.1//EN" "http://www.w3.org/Graphics/SVG/1.1/DTD/svg11.dtd">
<svg version="1.1" id="Layer_1" xmlns="http://www.w3.org/2000/svg" xmlns:xlink="http://www.w3.org/1999/xlink" x="0px" y="0px"
	 width="20px" height="20px" viewBox="0 0 20 20" enable-background="new 0 0 20 20" xml:space="preserve">
<rect fill="#E4E4E4" width="20" height="20"/>
<rect x="1" y="1" fill="#FFFFFF" width="18" height="18"/>
<rect x="1" y="1" fill="#FFFFFF" width="18" height="18"/>
<rect x="1" y="1" fill="none" width="18" height="18"/>
<rect x="1" y="1" fill-rule="evenodd" clip-rule="evenodd" fill="none" width="17.999" height="17.999"/>
<path fill="#1AB5EA" d="M12.38,14.318c0.353,0.347,0.35,0.923-0.008,1.287l-2.778,2.829c-0.357,0.364-0.933,0.378-1.287,0.031
	l-6.926-6.801c-0.353-0.347-0.35-0.923,0.008-1.287l2.778-2.829C4.525,7.184,5.101,7.17,5.454,7.517L12.38,14.318z"/>
<path fill="#1AB5EA" d="M11.543,16.449l-2.945-5.023L15.4,4.501c0.347-0.353,0.923-0.35,1.287,0.008L19,6.938v2.063L11.543,16.449z"
	/>
</svg>
