<?xml version="1.0" encoding="UTF-8"?>
<svg width="16px" height="17px" viewBox="0 0 16 17" version="1.1" xmlns="http://www.w3.org/2000/svg" xmlns:xlink="http://www.w3.org/1999/xlink">
    <!-- Generator: Sketch 46.2 (44496) - http://www.bohemiancoding.com/sketch -->
    <title>Fill 14</title>
    <desc>Created with Sketch.</desc>
    <defs></defs>
    <g id="Symbols" stroke="none" stroke-width="1" fill="none" fill-rule="evenodd">
        <g id="footer" transform="translate(-272.000000, -313.000000)" fill="#071E3C">
            <g id="Page-1" transform="translate(173.000000, 307.000000)">
                <path d="M113.879595,6.85714286 L99.9531353,6.85714286 C99.4759317,6.85714286 99.0889937,7.24720586 99.0889937,7.72894125 L99.0889937,21.7784945 C99.0889937,22.2599264 99.4759317,22.6502929 99.9531353,22.6502929 L107.450587,22.6502929 L107.450587,16.5343479 L105.410587,16.5343479 L105.410587,14.1508657 L107.450587,14.1508657 L107.450587,12.393002 C107.450587,10.3531394 108.685418,9.24244641 110.489224,9.24244641 C111.353365,9.24244641 112.095649,9.30740632 112.312286,9.33624366 L112.312286,11.4680821 L111.061507,11.4686892 C110.080321,11.4686892 109.890463,11.9388897 109.890463,12.6291646 L109.890463,14.1508657 L112.229843,14.1508657 L111.925348,16.5343479 L109.890463,16.5343479 L109.890463,22.6502929 L113.879595,22.6502929 C114.356799,22.6502929 114.743436,22.2599264 114.743436,21.7784945 L114.743436,7.72894125 C114.743436,7.24720586 114.356799,6.85714286 113.879595,6.85714286" id="Fill-14"></path>
            </g>
        </g>
    </g>
</svg>