<?xml version="1.0" encoding="UTF-8"?>
<svg width="212px" height="40px" viewBox="0 0 212 40" version="1.1" xmlns="http://www.w3.org/2000/svg" xmlns:xlink="http://www.w3.org/1999/xlink">
    <!-- Generator: Sketch 46.2 (44496) - http://www.bohemiancoding.com/sketch -->
    <title>old logo...</title>
    <desc>Created with Sketch.</desc>
    <defs>
        <polygon id="path-1" points="0 40 211.626 40 211.626 0.458 0 0.458"></polygon>
    </defs>
    <g id="Symbols" stroke="none" stroke-width="1" fill="none" fill-rule="evenodd">
        <g id="footer" transform="translate(-120.000000, -251.000000)">
            <g id="old-logo..." transform="translate(120.000000, 250.000000)">
                <polygon id="Fill-1" fill="#FEFEFE" points="19.7712 0.9997 10.3682 10.4037 19.7712 19.8077 29.1742 10.4037"></polygon>
                <polygon id="Fill-2" fill="#FEFEFE" points="39.5425 20.7709 30.1385 30.1749 20.7345 20.7709 30.1385 11.3669"></polygon>
                <polygon id="Fill-3" fill="#FEFEFE" points="10.3527 31.1227 19.7707 40.5417 29.1907 31.1227 19.7707 21.7037"></polygon>
                <polygon id="Fill-4" fill="#FEFEFE" points="0 20.7709 9.415 30.1859 18.829 20.7709 9.415 11.3569"></polygon>
                <polygon id="Fill-5" fill="#FEFEFE" points="54.0908 10.5961 59.2248 10.5961 64.9158 19.7511 70.6068 10.5961 75.7408 10.5961 75.7408 32.2461 71.0088 32.2461 71.0088 18.1121 64.9158 27.3601 64.7918 27.3601 58.7608 18.2051 58.7608 32.2461 54.0908 32.2461"></polygon>
                <polygon id="Fill-6" fill="#FEFEFE" points="80.2593 10.5961 96.5903 10.5961 96.5903 14.8331 84.9913 14.8331 84.9913 19.2251 95.1973 19.2251 95.1973 23.4631 84.9913 23.4631 84.9913 28.0101 96.7443 28.0101 96.7443 32.2461 80.2593 32.2461"></polygon>
                <g id="Group-18" transform="translate(0.000000, 0.542100)">
                    <path d="M105.1899,14.3533 L105.1899,27.4053 L108.8709,27.4053 C112.7679,27.4053 115.3969,24.7763 115.3969,20.9413 L115.3969,20.8793 C115.3969,17.0443 112.7679,14.3533 108.8709,14.3533 L105.1899,14.3533 Z M100.4269,10.0543 L108.8709,10.0543 C115.6749,10.0543 120.3769,14.7243 120.3769,20.8173 L120.3769,20.8793 C120.3769,26.9723 115.6749,31.7043 108.8709,31.7043 L100.4269,31.7043 L100.4269,10.0543 Z" id="Fill-7" fill="#FEFEFE"></path>
                    <path d="M134.6987,22.6418 L131.8227,15.6208 L128.9467,22.6418 L134.6987,22.6418 Z M129.6877,9.8988 L134.0797,9.8988 L143.3587,31.7048 L138.3797,31.7048 L136.3997,26.8488 L127.2447,26.8488 L125.2657,31.7048 L120.4087,31.7048 L129.6877,9.8988 Z" id="Fill-9" fill="#FEFEFE"></path>
                    <polygon id="Fill-11" fill="#FEFEFE" points="145.6196 10.054 150.3826 10.054 150.3826 27.374 161.1776 27.374 161.1776 31.704 145.6196 31.704"></polygon>
                    <polygon id="Fill-13" fill="#FEFEFE" points="163.56 10.054 168.323 10.054 168.323 27.374 179.118 27.374 179.118 31.704 163.56 31.704"></polygon>
                    <mask id="mask-2" fill="white">
                        <use xlink:href="#path-1"></use>
                    </mask>
                    <g id="Clip-16"></g>
                    <polygon id="Fill-15" fill="#FEFEFE" mask="url(#mask-2)" points="181.593 31.704 186.357 31.704 186.357 10.054 181.593 10.054"></polygon>
                    <path d="M202.9663,22.6418 L200.0893,15.6208 L197.2133,22.6418 L202.9663,22.6418 Z M197.9553,9.8988 L202.3483,9.8988 L211.6263,31.7048 L206.6473,31.7048 L204.6673,26.8488 L195.5123,26.8488 L193.5323,31.7048 L188.6773,31.7048 L197.9553,9.8988 Z" id="Fill-17" fill="#FEFEFE" mask="url(#mask-2)"></path>
                </g>
            </g>
        </g>
    </g>
</svg>