<?xml version="1.0" encoding="UTF-8"?>
<svg width="169px" height="32px" viewBox="0 0 169 32" version="1.1" xmlns="http://www.w3.org/2000/svg" xmlns:xlink="http://www.w3.org/1999/xlink">
    <!-- Generator: Sketch 46.2 (44496) - http://www.bohemiancoding.com/sketch -->
    <title>logo</title>
    <desc>Created with Sketch.</desc>
    <defs></defs>
    <g id="Symbols" stroke="none" stroke-width="1" fill="none" fill-rule="evenodd">
        <g id="navigation" transform="translate(-616.000000, -28.000000)" fill="#9B9B9B">
            <g id="logo">
                <g transform="translate(616.000000, 28.000000)">
                    <polygon id="Fill-1" points="15.7198828 -0.000238526991 8.24365183 7.47678756 15.7198828 14.9538136 23.1961138 7.47678756"></polygon>
                    <polygon id="Fill-2" points="31.4398452 15.7196443 23.9628191 23.1966704 16.485793 15.7196443 23.9628191 8.24261822"></polygon>
                    <polygon id="Fill-3" points="8.23132794 23.9502567 15.7194853 31.4392091 23.2092328 23.9502567 15.7194853 16.4613042"></polygon>
                    <polygon id="Fill-4" points="0 15.7196443 7.48577207 23.2054164 14.9707491 15.7196443 7.48577207 8.23466732"></polygon>
                    <polygon id="Fill-5" points="43.0070526 7.62976287 47.0890445 7.62976287 51.6139015 14.9088116 56.1387585 7.62976287 60.2207505 7.62976287 60.2207505 24.8434607 56.4583847 24.8434607 56.4583847 13.6056591 51.6139015 20.9586511 51.5153104 20.9586511 46.7201228 13.6796025 46.7201228 24.8434607 43.0070526 24.8434607"></polygon>
                    <polygon id="Fill-6" points="63.8133645 7.62976287 76.7979788 7.62976287 76.7979788 10.9985591 67.5757302 10.9985591 67.5757302 14.4905942 75.6904185 14.4905942 75.6904185 17.8601855 67.5757302 17.8601855 67.5757302 21.4754596 76.9204227 21.4754596 76.9204227 24.8434607 63.8133645 24.8434607"></polygon>
                    <path d="M83.6354345,11.0480932 L83.6354345,21.4256075 L86.5621607,21.4256075 C89.6606263,21.4256075 91.7509178,19.3353159 91.7509178,16.2861459 L91.7509178,16.2368503 C91.7509178,13.1876803 89.6606263,11.0480932 86.5621607,11.0480932 L83.6354345,11.0480932 Z M79.848421,7.6300014 L86.5621607,7.6300014 C91.9719529,7.6300014 95.7104659,11.3430716 95.7104659,16.1875548 L95.7104659,16.2368503 C95.7104659,21.0813335 91.9719529,24.8436993 86.5621607,24.8436993 L79.848421,24.8436993 L79.848421,7.6300014 Z" id="Fill-7"></path>
                    <path d="M107.097585,17.6381964 L104.810907,12.0558697 L102.524228,17.6381964 L107.097585,17.6381964 Z M103.11339,7.5063649 L106.605425,7.5063649 L113.983065,24.8440968 L110.024312,24.8440968 L108.450033,20.9831399 L101.170985,20.9831399 L99.5975018,24.8440968 L95.7357498,24.8440968 L103.11339,7.5063649 Z" id="Fill-9"></path>
                    <polygon id="Fill-11" points="115.780684 7.62976287 119.567697 7.62976287 119.567697 21.4007212 128.150693 21.4007212 128.150693 24.8434607 115.780684 24.8434607"></polygon>
                    <polygon id="Fill-13" points="130.044916 7.62976287 133.831929 7.62976287 133.831929 21.4007212 142.414925 21.4007212 142.414925 24.8434607 130.044916 24.8434607"></polygon>
                    <polygon id="Fill-15" points="144.382773 24.8434607 148.170582 24.8434607 148.170582 7.62976287 144.382773 7.62976287"></polygon>
                    <path d="M161.37647,17.6381964 L159.088996,12.0558697 L156.802317,17.6381964 L161.37647,17.6381964 Z M157.392274,7.5063649 L160.885104,7.5063649 L168.261949,24.8440968 L164.303196,24.8440968 L162.728918,20.9831399 L155.449869,20.9831399 L153.875591,24.8440968 L150.015429,24.8440968 L157.392274,7.5063649 Z" id="Fill-17"></path>
                </g>
            </g>
        </g>
    </g>
</svg>