<?xml version="1.0" encoding="UTF-8"?>
<svg width="19px" height="20px" viewBox="0 0 19 20" version="1.1" xmlns="http://www.w3.org/2000/svg" xmlns:xlink="http://www.w3.org/1999/xlink">
    <!-- Generator: Sketch 46.2 (44496) - http://www.bohemiancoding.com/sketch -->
    <title>Group</title>
    <desc>Created with Sketch.</desc>
    <defs></defs>
    <g id="Symbols" stroke="none" stroke-width="1" fill="none" fill-rule="evenodd">
        <g id="footer" transform="translate(-128.000000, -328.000000)" fill="#071E3C">
            <g id="Page-1" transform="translate(121.000000, 321.000000)">
                <g id="Group" transform="translate(7.000000, 7.000000)">
                    <path d="M2.52663451,0.721552596 C3.76648112,0.721552596 4.77289115,1.73723415 4.77289115,2.98877482 C4.77289115,4.24066963 3.76648112,5.25635118 2.52663451,5.25635118 C1.28222448,5.25635118 0.278271681,4.24066963 0.278271681,2.98877482 C0.278271681,1.73723415 1.28222448,0.721552596 2.52663451,0.721552596 L2.52663451,0.721552596 Z M0.586127139,19.5548668 L4.46538673,19.5548668 L4.46538673,6.9750062 L0.586127139,6.9750062 L0.586127139,19.5548668 Z" id="Fill-8"></path>
                    <path d="M6.89653215,6.97489996 L10.6111575,6.97489996 L10.6111575,8.69461741 L10.6645145,8.69461741 C11.1812342,7.70549656 12.4456531,6.66290015 14.3310484,6.66290015 C18.2548891,6.66290015 18.9801221,9.26762047 18.9801221,12.6557047 L18.9801221,19.5547606 L15.1050749,19.5547606 L15.1050749,13.4372978 C15.1050749,11.9782295 15.0801516,10.1016268 13.0912018,10.1016268 C11.0748714,10.1016268 10.7670159,11.6913738 10.7670159,13.3328257 L10.7670159,19.5547606 L6.89653215,19.5547606 L6.89653215,6.97489996 Z" id="Fill-10"></path>
                </g>
            </g>
        </g>
    </g>
</svg>