<svg height="26" viewBox="0 0 116 26" width="116" xmlns="http://www.w3.org/2000/svg" xmlns:xlink="http://www.w3.org/1999/xlink"><mask id="a" fill="#fff"><path d="m.0764607.04276418h14.7934696v17.48454722h-14.7934696z" fill="#fff" fill-rule="evenodd"/></mask><g fill="none" fill-rule="evenodd"><g fill="#364045"><path d="m19.0210567 3.12232836-7.5388358 9.90923384-7.53896518-9.90923384h-3.94320398v22.43476614h4.32945274v-14.7480796l7.00098512 8.7850249h.2403383l7.0641094-8.848796v14.8118507h4.329194v-22.43476614z"/><path d="m86.5812547 25.5571075h4.2557214v-23.72972143l-4.2557214 1.29495522z"/><path d="m78.6607622 25.5571075h4.2558507v-23.72972143l-4.2558507 1.29495522z"/></g><g transform="translate(25.61194 .113831)"><path d="m27.9700239 21.7723741-.1689353.0565274c-.0097015.0032338-.9777811.3258408-1.956209.3258408h-.1419005c-.4469154 0-1.4936418 0-2.379194-.6796219-1.0176219-.7819403-1.533612-2.2225473-1.533612-4.2813333 0-3.1851941 1.5047662-5.0869453 4.0250846-5.0869453.6436617 0 1.3143582.1265075 1.9934627.3761592l.1613035.0596318zm0-12.9910746-.3090249-.08162189c-.8034129-.21162189-1.7351443-.32829851-2.6236716-.32829851-1.449015 0-3.5197015.30294528-5.1558906 1.7471741-1.7264776 1.5239105-2.6019403 3.9855025-2.6019403 7.3163483 0 3.0215622.8230746 5.2620895 2.446199 6.6591045 1.3336319 1.1482686 3.1948955 1.7302288 5.5321791 1.7302288 2.857801 0 5.4911742-.8501094 6.8063085-1.3573035l.1096915-.0417811v-22.57110443l-4.2038507 1.16068657z" fill="#364045"/><path d="m68.8217025 25.4432766h4.2557214v-17.28689551l-4.2557214 1.29495523z" fill="#364045"/><path d="m68.0903005 3.02000995 3.0522189 3.09943284 3.0518308-3.0519602-3.0518308-3.0519602z" fill="#4050c6"/><g fill="#364045"><path d="m45.0564607 21.3009333s-1.0596617 1.3707563-3.5951144 1.3707563c-1.5394329 0-2.5359702-.846617-2.5359702-2.2651045 0-1.8410846 1.8445771-2.4971642 3.570796-2.4971642 1.6103184 0 2.5602886.227791 2.5602886.227791zm-3.2977313-12.97956216c-3.1247861 0-5.3246966 1.21734329-5.3246966 1.21734329v3.48865667h.0316916c.6845373-.2730646 2.3557811-1.1121791 5.0980696-1.1121791 1.3755423 0 2.3185274.2928558 2.8830249.8956418.580408.6194727.5708358 1.835005.5637214 2.5675324 0 0-1.3125473-.3341194-2.8653035-.3341194-4.853204 0-7.5260298 2.1045771-7.5260298 5.4153731s2.7825174 5.3462985 5.8793631 5.3462985c3.0965871 0 4.8325075-1.3437214 4.8325075-1.3437214v.9242289h4.081612v-2.6364776-1.1342985-6.7193831c0-5.89307466-4.3682588-6.57489556-7.6539602-6.57489556z"/><path d="m10.5137144 13.0223264s-1.05966166 1.3707562-3.59524375 1.3707562c-1.53930349 0-2.5358408-.8466169-2.5358408-2.2651045 0-1.8410846 1.84457712-2.49716417 3.57079602-2.49716417 1.61031841 0 2.56028853.22779105 2.56028853.22779105zm-3.29773132-12.97956222c-3.12478607 0-5.32469651 1.21734328-5.32469651 1.21734328v3.48865672h.03169154c.68440796-.27306468 2.35578109-1.11217911 5.09806965-1.11217911 1.37554229 0 2.31852736.29285573 2.88302488.8956418.58040796.61947263.57083586 1.83500497.56372136 2.56753233 0 0-1.31254723-.3341194-2.86530345-.3341194-4.85320398 0-7.52602985 2.10457712-7.52602985 5.4153731 0 3.3107961 2.78251741 5.3462985 5.87936318 5.3462985 3.09658707 0 4.83237812-1.3437214 4.83237812-1.3437214v.9242289h4.0817413v-2.6364776-1.1342985-6.7193831c0-5.89307462-4.3683881-6.57489552-7.65396022-6.57489552z" mask="url(#a)" transform="translate(75.283582 8.278607)"/><path d="m4.30892438 15.573392c0-.3972437.05406965-1.1588756.41108458-1.8290547.45571144-.8552836 1.49674626-1.8754925 3.23473631-1.8754925 1.74613931 0 2.68705473 1.0279701 3.08610943 1.8904975.3171742.6863482.3315324 1.4422885.3315324 1.8140497zm10.85713432 1.2511045c0-3.050796-.7401592-5.2657114-2.1999104-6.6385373-1.1882388-1.11761194-2.8717712-1.84884577-5.00351248-1.84884577-1.96267662 0-3.87024876.67638806-5.23337313 1.85544277-1.794 1.5524975-2.7037413 3.8972836-2.7037413 6.9691642 0 7.8605373 5.87457712 8.7088358 8.40032836 8.7088358 2.47543285 0 4.74183085-.8915025 5.64639805-1.2983184v-3.5504876c-.6194727.3726667-2.463015 1.3376418-4.95177118 1.3376418-1.33751244 0-3.15207961-.5018905-4.20152239-2.1101393-.41716418-.6391343-.5780796-1.2758109-.63952239-1.6431741h10.83009946s.0565274-1.0493134.0565274-1.7815821z"/></g></g></g></svg>