<?xml version="1.0" encoding="UTF-8"?>
<svg width="226px" height="232px" viewBox="0 0 226 232" version="1.1" xmlns="http://www.w3.org/2000/svg" xmlns:xlink="http://www.w3.org/1999/xlink">
    <!-- Generator: Sketch 46.2 (44496) - http://www.bohemiancoding.com/sketch -->
    <title>Group</title>
    <desc>Created with Sketch.</desc>
    <defs></defs>
    <g id="Page-1" stroke="none" stroke-width="1" fill="none" fill-rule="evenodd">
        <g id="Group" fill="#071E3C">
            <path d="M181.941824,226.330989 C181.941824,125.458097 100.321211,43.3706759 0,43.3706759 L0,0 C124.241568,0 225.3125,101.53774 225.3125,226.330989 L181.941824,226.330989 Z" id="Path"></path>
            <path d="M105.399513,231.880814 C105.399513,203.532857 94.4224597,176.896529 74.4911869,156.894528 C54.6164969,136.892527 28.1499168,125.901328 0,125.901328 L0,82.5165066 C82.030838,82.5165066 148.770189,149.524625 148.770189,231.880814 L105.399513,231.880814 Z" id="Path"></path>
            <path d="M30.0312932,225.123891 C13.4384025,225.123891 0,211.671343 0,195.064306 C0,178.471416 13.4384025,165.033013 30.0312932,165.033013 C46.6383295,165.033013 60.0908777,178.471416 60.0908777,195.064306 C60.0908777,211.671343 46.6383295,225.123891 30.0312932,225.123891 L30.0312932,225.123891 Z" id="Path"></path>
        </g>
    </g>
</svg>