<?xml version="1.0" encoding="UTF-8"?>
<svg width="19px" height="16px" viewBox="0 0 19 16" version="1.1" xmlns="http://www.w3.org/2000/svg" xmlns:xlink="http://www.w3.org/1999/xlink">
    <!-- Generator: Sketch 46.2 (44496) - http://www.bohemiancoding.com/sketch -->
    <title>Fill 3</title>
    <desc>Created with Sketch.</desc>
    <defs></defs>
    <g id="Symbols" stroke="none" stroke-width="1" fill="none" fill-rule="evenodd">
        <g id="footer" transform="translate(-181.000000, -330.000000)" fill="#071E3C">
            <g id="Page-1" transform="translate(121.000000, 321.000000)">
                <path d="M78.7647292,11.3485769 C78.0767056,11.6566812 77.3374313,11.864563 76.5609475,11.9580567 C77.3532277,11.4789015 77.961567,10.7203276 78.2480094,9.81655517 C77.5069799,10.259942 76.685564,10.5822119 75.8114932,10.756096 C75.1118855,10.0035426 74.1142513,9.53359507 73.0109563,9.53359507 C70.8917735,9.53359507 69.1738206,11.26677 69.1738206,13.4043759 C69.1738206,13.7078763 69.2078708,14.0032314 69.2731628,14.2865456 C66.0843841,14.1250565 63.2571687,12.5841812 61.3651038,10.2418807 C61.0347823,10.8138213 60.8455758,11.4789015 60.8455758,12.1882495 C60.8455758,13.531159 61.5227174,14.7157667 62.5522956,15.4098866 C61.9232454,15.3900546 61.3317558,15.2158163 60.8143339,14.9257734 C60.8139829,14.9417098 60.8139829,14.9580004 60.8139829,14.9746451 C60.8139829,16.8501854 62.1366732,18.4144341 63.8918354,18.7703477 C63.5699386,18.8585292 63.2308413,18.9059843 62.8808619,18.9059843 C62.6337351,18.9059843 62.3932779,18.8815485 62.1591392,18.8365724 C62.6474254,20.3742604 64.0645434,21.4933517 65.7435316,21.5248704 C64.4303192,22.5632171 62.7759032,23.1819045 60.9782661,23.1819045 C60.6686555,23.1819045 60.3632572,23.1634891 60.0631245,23.1277207 C61.7610684,24.2259175 63.7777499,24.8665619 65.9446732,24.8665619 C73.0018295,24.8665619 76.8614313,18.9683135 76.8614313,13.8530748 C76.8614313,13.6852111 76.8575699,13.5184099 76.8501982,13.3523169 C77.5996525,12.8065829 78.2504667,12.124858 78.7647292,11.3485769" id="Fill-3"></path>
            </g>
        </g>
    </g>
</svg>